<svg width="312" height="59" viewBox="0 0 312 59" fill="none" xmlns="http://www.w3.org/2000/svg">
<rect width="154" height="58.4898" rx="4" fill="#333333"/>
<g clip-path="url(#clip0_2155_14940)">
<path d="M35.4242 37.0659C35.0158 38.0169 34.5115 38.9238 33.9192 39.7725C33.127 40.9013 32.4789 41.6824 31.9796 42.1164C31.2055 42.828 30.3754 43.1932 29.487 43.2136C28.8494 43.2136 28.0806 43.0322 27.1852 42.6641C26.2868 42.2978 25.4614 42.1158 24.7066 42.1158C23.915 42.1158 23.0662 42.2978 22.158 42.6641C21.2486 43.0322 20.5159 43.2241 19.9559 43.2428C19.1042 43.2795 18.2549 42.9044 17.4067 42.1164C16.866 41.6439 16.1899 40.8354 15.3791 39.6897C14.5093 38.4659 13.7942 37.0472 13.2342 35.429C12.6345 33.682 12.3335 31.9897 12.3335 30.3517C12.3335 28.4751 12.7389 26.8569 13.5509 25.5007C14.1897 24.411 15.0384 23.5524 16.1012 22.9212C17.1439 22.2972 18.3337 21.9614 19.5487 21.9482C20.2254 21.9482 21.1127 22.1576 22.2157 22.5689C23.3153 22.9813 24.0212 23.1907 24.3309 23.1907C24.5619 23.1907 25.3465 22.9457 26.6759 22.458C27.9336 22.0054 28.9947 21.8181 29.8638 21.8922C32.2199 22.0824 33.9897 23.011 35.1663 24.684C33.0599 25.9604 32.0175 27.7483 32.0385 30.0419C32.0572 31.8287 32.7052 33.3156 33.9792 34.4957C34.5567 35.044 35.2013 35.4675 35.9182 35.768C35.7679 36.2059 35.6032 36.6388 35.4242 37.0659ZM30.0213 15.8057C30.0213 17.2057 29.5097 18.5135 28.4901 19.7234C27.2592 21.1625 25.7712 21.9937 24.1571 21.8625C24.1354 21.6863 24.1245 21.5091 24.1244 21.3316C24.1244 19.9876 24.7095 18.5491 25.749 17.3725C26.2682 16.777 26.9273 16.2817 27.7277 15.8868C28.5268 15.4977 29.2817 15.2825 29.9922 15.2451C30.0126 15.4324 30.0213 15.6196 30.0213 15.8051V15.8057Z" fill="white"/>
</g>
<path d="M47.234 13.333C48.07 13.333 48.7923 13.4907 49.401 13.806C50.017 14.114 50.4863 14.5577 50.809 15.137C51.139 15.7163 51.304 16.3983 51.304 17.183C51.304 17.9677 51.139 18.6497 50.809 19.229C50.4863 19.801 50.017 20.241 49.401 20.549C48.7923 20.8497 48.07 21 47.234 21H44.847V13.333H47.234ZM47.234 20.175C48.224 20.175 48.9793 19.9147 49.5 19.394C50.0207 18.866 50.281 18.129 50.281 17.183C50.281 16.2297 50.017 15.4853 49.489 14.95C48.9683 14.4147 48.2167 14.147 47.234 14.147H45.848V20.175H47.234ZM55.2533 21.099C54.6887 21.099 54.1753 20.9707 53.7133 20.714C53.2587 20.4573 52.8993 20.0943 52.6353 19.625C52.3787 19.1483 52.2503 18.5983 52.2503 17.975C52.2503 17.359 52.3823 16.8163 52.6463 16.347C52.9177 15.8703 53.2843 15.5073 53.7463 15.258C54.2083 15.0013 54.7253 14.873 55.2973 14.873C55.8693 14.873 56.3863 15.0013 56.8483 15.258C57.3103 15.5073 57.6733 15.8667 57.9373 16.336C58.2087 16.8053 58.3443 17.3517 58.3443 17.975C58.3443 18.5983 58.205 19.1483 57.9263 19.625C57.655 20.0943 57.2847 20.4573 56.8153 20.714C56.346 20.9707 55.8253 21.099 55.2533 21.099ZM55.2533 20.219C55.6127 20.219 55.95 20.1347 56.2653 19.966C56.5807 19.7973 56.8337 19.5443 57.0243 19.207C57.2223 18.8697 57.3213 18.459 57.3213 17.975C57.3213 17.491 57.226 17.0803 57.0353 16.743C56.8447 16.4057 56.5953 16.1563 56.2873 15.995C55.9793 15.8263 55.6457 15.742 55.2863 15.742C54.9197 15.742 54.5823 15.8263 54.2743 15.995C53.9737 16.1563 53.7317 16.4057 53.5483 16.743C53.365 17.0803 53.2733 17.491 53.2733 17.975C53.2733 18.4663 53.3613 18.8807 53.5373 19.218C53.7207 19.5553 53.9627 19.8083 54.2633 19.977C54.564 20.1383 54.894 20.219 55.2533 20.219ZM67.6905 14.972L65.8095 21H64.7755L63.3235 16.215L61.8715 21H60.8375L58.9455 14.972H59.9685L61.3545 20.032L62.8505 14.972H63.8735L65.3365 20.043L66.7005 14.972H67.6905ZM71.6209 14.862C72.3542 14.862 72.9482 15.0857 73.4029 15.533C73.8576 15.973 74.0849 16.611 74.0849 17.447V21H73.0949V17.59C73.0949 16.9887 72.9446 16.5303 72.6439 16.215C72.3432 15.8923 71.9326 15.731 71.4119 15.731C70.8839 15.731 70.4622 15.896 70.1469 16.226C69.8389 16.556 69.6849 17.0363 69.6849 17.667V21H68.6839V14.972H69.6849V15.83C69.8829 15.522 70.1506 15.2837 70.4879 15.115C70.8326 14.9463 71.2102 14.862 71.6209 14.862ZM76.721 12.86V21H75.72V12.86H76.721ZM81.0561 21.099C80.4914 21.099 79.9781 20.9707 79.5161 20.714C79.0614 20.4573 78.7021 20.0943 78.4381 19.625C78.1814 19.1483 78.0531 18.5983 78.0531 17.975C78.0531 17.359 78.1851 16.8163 78.4491 16.347C78.7204 15.8703 79.0871 15.5073 79.5491 15.258C80.0111 15.0013 80.5281 14.873 81.1001 14.873C81.6721 14.873 82.1891 15.0013 82.6511 15.258C83.1131 15.5073 83.4761 15.8667 83.7401 16.336C84.0114 16.8053 84.1471 17.3517 84.1471 17.975C84.1471 18.5983 84.0077 19.1483 83.7291 19.625C83.4577 20.0943 83.0874 20.4573 82.6181 20.714C82.1487 20.9707 81.6281 21.099 81.0561 21.099ZM81.0561 20.219C81.4154 20.219 81.7527 20.1347 82.0681 19.966C82.3834 19.7973 82.6364 19.5443 82.8271 19.207C83.0251 18.8697 83.1241 18.459 83.1241 17.975C83.1241 17.491 83.0287 17.0803 82.8381 16.743C82.6474 16.4057 82.3981 16.1563 82.0901 15.995C81.7821 15.8263 81.4484 15.742 81.0891 15.742C80.7224 15.742 80.3851 15.8263 80.0771 15.995C79.7764 16.1563 79.5344 16.4057 79.3511 16.743C79.1677 17.0803 79.0761 17.491 79.0761 17.975C79.0761 18.4663 79.1641 18.8807 79.3401 19.218C79.5234 19.5553 79.7654 19.8083 80.0661 19.977C80.3667 20.1383 80.6967 20.219 81.0561 20.219ZM85.0892 17.964C85.0892 17.348 85.2139 16.809 85.4632 16.347C85.7125 15.8777 86.0535 15.5147 86.4862 15.258C86.9262 15.0013 87.4139 14.873 87.9492 14.873C88.4772 14.873 88.9355 14.9867 89.3242 15.214C89.7129 15.4413 90.0025 15.7273 90.1932 16.072V14.972H91.2052V21H90.1932V19.878C89.9952 20.23 89.6982 20.5233 89.3022 20.758C88.9135 20.9853 88.4589 21.099 87.9382 21.099C87.4029 21.099 86.9189 20.967 86.4862 20.703C86.0535 20.439 85.7125 20.0687 85.4632 19.592C85.2139 19.1153 85.0892 18.5727 85.0892 17.964ZM90.1932 17.975C90.1932 17.5203 90.1015 17.1243 89.9182 16.787C89.7349 16.4497 89.4855 16.193 89.1702 16.017C88.8622 15.8337 88.5212 15.742 88.1472 15.742C87.7732 15.742 87.4322 15.83 87.1242 16.006C86.8162 16.182 86.5705 16.4387 86.3872 16.776C86.2039 17.1133 86.1122 17.5093 86.1122 17.964C86.1122 18.426 86.2039 18.8293 86.3872 19.174C86.5705 19.5113 86.8162 19.7717 87.1242 19.955C87.4322 20.131 87.7732 20.219 88.1472 20.219C88.5212 20.219 88.8622 20.131 89.1702 19.955C89.4855 19.7717 89.7349 19.5113 89.9182 19.174C90.1015 18.8293 90.1932 18.4297 90.1932 17.975ZM92.5228 17.964C92.5228 17.348 92.6475 16.809 92.8968 16.347C93.1461 15.8777 93.4871 15.5147 93.9198 15.258C94.3598 15.0013 94.8511 14.873 95.3938 14.873C95.8631 14.873 96.2995 14.983 96.7028 15.203C97.1061 15.4157 97.4141 15.698 97.6268 16.05V12.86H98.6388V21H97.6268V19.867C97.4288 20.2263 97.1355 20.5233 96.7468 20.758C96.3581 20.9853 95.9035 21.099 95.3828 21.099C94.8475 21.099 94.3598 20.967 93.9198 20.703C93.4871 20.439 93.1461 20.0687 92.8968 19.592C92.6475 19.1153 92.5228 18.5727 92.5228 17.964ZM97.6268 17.975C97.6268 17.5203 97.5351 17.1243 97.3518 16.787C97.1685 16.4497 96.9191 16.193 96.6038 16.017C96.2958 15.8337 95.9548 15.742 95.5808 15.742C95.2068 15.742 94.8658 15.83 94.5578 16.006C94.2498 16.182 94.0041 16.4387 93.8208 16.776C93.6375 17.1133 93.5458 17.5093 93.5458 17.964C93.5458 18.426 93.6375 18.8293 93.8208 19.174C94.0041 19.5113 94.2498 19.7717 94.5578 19.955C94.8658 20.131 95.2068 20.219 95.5808 20.219C95.9548 20.219 96.2958 20.131 96.6038 19.955C96.9191 19.7717 97.1685 19.5113 97.3518 19.174C97.5351 18.8293 97.6268 18.4297 97.6268 17.975ZM105.892 21.099C105.327 21.099 104.814 20.9707 104.352 20.714C103.897 20.4573 103.538 20.0943 103.274 19.625C103.017 19.1483 102.889 18.5983 102.889 17.975C102.889 17.359 103.021 16.8163 103.285 16.347C103.556 15.8703 103.923 15.5073 104.385 15.258C104.847 15.0013 105.364 14.873 105.936 14.873C106.508 14.873 107.025 15.0013 107.487 15.258C107.949 15.5073 108.312 15.8667 108.576 16.336C108.847 16.8053 108.983 17.3517 108.983 17.975C108.983 18.5983 108.844 19.1483 108.565 19.625C108.294 20.0943 107.923 20.4573 107.454 20.714C106.985 20.9707 106.464 21.099 105.892 21.099ZM105.892 20.219C106.251 20.219 106.589 20.1347 106.904 19.966C107.219 19.7973 107.472 19.5443 107.663 19.207C107.861 18.8697 107.96 18.459 107.96 17.975C107.96 17.491 107.865 17.0803 107.674 16.743C107.483 16.4057 107.234 16.1563 106.926 15.995C106.618 15.8263 106.284 15.742 105.925 15.742C105.558 15.742 105.221 15.8263 104.913 15.995C104.612 16.1563 104.37 16.4057 104.187 16.743C104.004 17.0803 103.912 17.491 103.912 17.975C103.912 18.4663 104 18.8807 104.176 19.218C104.359 19.5553 104.601 19.8083 104.902 19.977C105.203 20.1383 105.533 20.219 105.892 20.219ZM113.236 14.862C113.969 14.862 114.563 15.0857 115.018 15.533C115.473 15.973 115.7 16.611 115.7 17.447V21H114.71V17.59C114.71 16.9887 114.56 16.5303 114.259 16.215C113.958 15.8923 113.548 15.731 113.027 15.731C112.499 15.731 112.077 15.896 111.762 16.226C111.454 16.556 111.3 17.0363 111.3 17.667V21H110.299V14.972H111.3V15.83C111.498 15.522 111.766 15.2837 112.103 15.115C112.448 14.9463 112.825 14.862 113.236 14.862ZM121.489 15.797V19.35C121.489 19.6433 121.551 19.8523 121.676 19.977C121.801 20.0943 122.017 20.153 122.325 20.153H123.062V21H122.16C121.603 21 121.185 20.8717 120.906 20.615C120.627 20.3583 120.488 19.9367 120.488 19.35V15.797H119.707V14.972H120.488V13.454H121.489V14.972H123.062V15.797H121.489ZM127.267 14.862C127.721 14.862 128.132 14.961 128.499 15.159C128.865 15.3497 129.151 15.6393 129.357 16.028C129.569 16.4167 129.676 16.8897 129.676 17.447V21H128.686V17.59C128.686 16.9887 128.535 16.5303 128.235 16.215C127.934 15.8923 127.523 15.731 127.003 15.731C126.475 15.731 126.053 15.896 125.738 16.226C125.43 16.556 125.276 17.0363 125.276 17.667V21H124.275V12.86H125.276V15.83C125.474 15.522 125.745 15.2837 126.09 15.115C126.442 14.9463 126.834 14.862 127.267 14.862ZM136.811 17.755C136.811 17.9457 136.8 18.1473 136.778 18.36H131.96C131.997 18.954 132.198 19.4197 132.565 19.757C132.939 20.087 133.39 20.252 133.918 20.252C134.351 20.252 134.71 20.153 134.996 19.955C135.289 19.7497 135.495 19.4783 135.612 19.141H136.69C136.529 19.7203 136.206 20.1933 135.722 20.56C135.238 20.9193 134.637 21.099 133.918 21.099C133.346 21.099 132.833 20.9707 132.378 20.714C131.931 20.4573 131.579 20.0943 131.322 19.625C131.065 19.1483 130.937 18.5983 130.937 17.975C130.937 17.3517 131.062 16.8053 131.311 16.336C131.56 15.8667 131.909 15.5073 132.356 15.258C132.811 15.0013 133.331 14.873 133.918 14.873C134.49 14.873 134.996 14.9977 135.436 15.247C135.876 15.4963 136.213 15.841 136.448 16.281C136.69 16.7137 136.811 17.205 136.811 17.755ZM135.777 17.546C135.777 17.1647 135.693 16.8383 135.524 16.567C135.355 16.2883 135.124 16.0793 134.831 15.94C134.545 15.7933 134.226 15.72 133.874 15.72C133.368 15.72 132.935 15.8813 132.576 16.204C132.224 16.5267 132.022 16.974 131.971 17.546H135.777Z" fill="#B3B3B3"/>
<path d="M51.904 39.728H47.248L46.448 42H44.544L48.528 30.864H50.64L54.624 42H52.704L51.904 39.728ZM51.392 38.24L49.584 33.072L47.76 38.24H51.392ZM58.1803 34.48C58.4896 34.0747 58.9109 33.7333 59.4443 33.456C59.9776 33.1787 60.5803 33.04 61.2523 33.04C62.0203 33.04 62.7189 33.232 63.3483 33.616C63.9883 33.9893 64.4896 34.5173 64.8523 35.2C65.2149 35.8827 65.3963 36.6667 65.3963 37.552C65.3963 38.4373 65.2149 39.232 64.8523 39.936C64.4896 40.6293 63.9883 41.1733 63.3483 41.568C62.7189 41.952 62.0203 42.144 61.2523 42.144C60.5803 42.144 59.9829 42.0107 59.4603 41.744C58.9376 41.4667 58.5109 41.1253 58.1803 40.72V46.192H56.3563V33.184H58.1803V34.48ZM63.5403 37.552C63.5403 36.944 63.4123 36.4213 63.1562 35.984C62.9109 35.536 62.5803 35.2 62.1643 34.976C61.7589 34.7413 61.3216 34.624 60.8523 34.624C60.3936 34.624 59.9563 34.7413 59.5403 34.976C59.1349 35.2107 58.8043 35.552 58.5483 36C58.3029 36.448 58.1803 36.976 58.1803 37.584C58.1803 38.192 58.3029 38.7253 58.5483 39.184C58.8043 39.632 59.1349 39.9733 59.5403 40.208C59.9563 40.4427 60.3936 40.56 60.8523 40.56C61.3216 40.56 61.7589 40.4427 62.1643 40.208C62.5803 39.9627 62.9109 39.6107 63.1562 39.152C63.4123 38.6933 63.5403 38.16 63.5403 37.552ZM69.024 34.48C69.3333 34.0747 69.7547 33.7333 70.288 33.456C70.8213 33.1787 71.424 33.04 72.096 33.04C72.864 33.04 73.5627 33.232 74.192 33.616C74.832 33.9893 75.3333 34.5173 75.696 35.2C76.0587 35.8827 76.24 36.6667 76.24 37.552C76.24 38.4373 76.0587 39.232 75.696 39.936C75.3333 40.6293 74.832 41.1733 74.192 41.568C73.5627 41.952 72.864 42.144 72.096 42.144C71.424 42.144 70.8267 42.0107 70.304 41.744C69.7813 41.4667 69.3547 41.1253 69.024 40.72V46.192H67.2V33.184H69.024V34.48ZM74.384 37.552C74.384 36.944 74.256 36.4213 74 35.984C73.7547 35.536 73.424 35.2 73.008 34.976C72.6027 34.7413 72.1653 34.624 71.696 34.624C71.2373 34.624 70.8 34.7413 70.384 34.976C69.9787 35.2107 69.648 35.552 69.392 36C69.1467 36.448 69.024 36.976 69.024 37.584C69.024 38.192 69.1467 38.7253 69.392 39.184C69.648 39.632 69.9787 39.9733 70.384 40.208C70.8 40.4427 71.2373 40.56 71.696 40.56C72.1653 40.56 72.6027 40.4427 73.008 40.208C73.424 39.9627 73.7547 39.6107 74 39.152C74.256 38.6933 74.384 38.16 74.384 37.552ZM85.864 42.112C85.1173 42.112 84.4453 41.984 83.848 41.728C83.2507 41.4613 82.7813 41.088 82.44 40.608C82.0987 40.128 81.928 39.568 81.928 38.928H83.88C83.9227 39.408 84.1093 39.8027 84.44 40.112C84.7813 40.4213 85.256 40.576 85.864 40.576C86.4933 40.576 86.984 40.4267 87.336 40.128C87.688 39.8187 87.864 39.424 87.864 38.944C87.864 38.5707 87.752 38.2667 87.528 38.032C87.3147 37.7973 87.0427 37.616 86.712 37.488C86.392 37.36 85.944 37.2213 85.368 37.072C84.6427 36.88 84.0507 36.688 83.592 36.496C83.144 36.2933 82.76 35.984 82.44 35.568C82.12 35.152 81.96 34.5973 81.96 33.904C81.96 33.264 82.12 32.704 82.44 32.224C82.76 31.744 83.208 31.376 83.784 31.12C84.36 30.864 85.0267 30.736 85.784 30.736C86.8613 30.736 87.7413 31.008 88.424 31.552C89.1173 32.0853 89.5013 32.8213 89.576 33.76H87.56C87.528 33.3547 87.336 33.008 86.984 32.72C86.632 32.432 86.168 32.288 85.592 32.288C85.0693 32.288 84.6427 32.4213 84.312 32.688C83.9813 32.9547 83.816 33.3387 83.816 33.84C83.816 34.1813 83.9173 34.464 84.12 34.688C84.3333 34.9013 84.6 35.072 84.92 35.2C85.24 35.328 85.6773 35.4667 86.232 35.616C86.968 35.8187 87.5653 36.0213 88.024 36.224C88.4933 36.4267 88.888 36.7413 89.208 37.168C89.5387 37.584 89.704 38.144 89.704 38.848C89.704 39.4133 89.5493 39.9467 89.24 40.448C88.9413 40.9493 88.4987 41.3547 87.912 41.664C87.336 41.9627 86.6533 42.112 85.864 42.112ZM93.9843 34.672V39.552C93.9843 39.8827 94.0589 40.1227 94.2083 40.272C94.3683 40.4107 94.6349 40.48 95.0083 40.48H96.1283V42H94.6883C93.8669 42 93.2376 41.808 92.8003 41.424C92.3629 41.04 92.1443 40.416 92.1443 39.552V34.672H91.1043V33.184H92.1443V30.992H93.9843V33.184H96.1283V34.672H93.9843ZM101.633 42.144C100.801 42.144 100.049 41.9573 99.3774 41.584C98.7054 41.2 98.1774 40.6667 97.7934 39.984C97.4094 39.2907 97.2174 38.4907 97.2174 37.584C97.2174 36.688 97.4147 35.8933 97.8094 35.2C98.204 34.5067 98.7427 33.9733 99.4254 33.6C100.108 33.2267 100.871 33.04 101.713 33.04C102.556 33.04 103.319 33.2267 104.001 33.6C104.684 33.9733 105.223 34.5067 105.617 35.2C106.012 35.8933 106.209 36.688 106.209 37.584C106.209 38.48 106.007 39.2747 105.601 39.968C105.196 40.6613 104.641 41.2 103.937 41.584C103.244 41.9573 102.476 42.144 101.633 42.144ZM101.633 40.56C102.103 40.56 102.54 40.448 102.945 40.224C103.361 40 103.697 39.664 103.953 39.216C104.209 38.768 104.337 38.224 104.337 37.584C104.337 36.944 104.215 36.4053 103.969 35.968C103.724 35.52 103.399 35.184 102.993 34.96C102.588 34.736 102.151 34.624 101.681 34.624C101.212 34.624 100.775 34.736 100.369 34.96C99.9747 35.184 99.66 35.52 99.4254 35.968C99.1907 36.4053 99.0734 36.944 99.0734 37.584C99.0734 38.5333 99.3134 39.2693 99.7934 39.792C100.284 40.304 100.897 40.56 101.633 40.56ZM109.837 34.464C110.103 34.016 110.455 33.6693 110.893 33.424C111.341 33.168 111.869 33.04 112.477 33.04V34.928H112.013C111.298 34.928 110.754 35.1093 110.381 35.472C110.018 35.8347 109.837 36.464 109.837 37.36V42H108.013V33.184H109.837V34.464ZM122.233 37.376C122.233 37.7067 122.212 38.0053 122.169 38.272H115.433C115.486 38.976 115.748 39.5413 116.217 39.968C116.686 40.3947 117.262 40.608 117.945 40.608C118.926 40.608 119.62 40.1973 120.025 39.376H121.993C121.726 40.1867 121.241 40.8533 120.537 41.376C119.844 41.888 118.98 42.144 117.945 42.144C117.102 42.144 116.345 41.9573 115.673 41.584C115.012 41.2 114.489 40.6667 114.105 39.984C113.732 39.2907 113.545 38.4907 113.545 37.584C113.545 36.6773 113.726 35.8827 114.089 35.2C114.462 34.5067 114.98 33.9733 115.641 33.6C116.313 33.2267 117.081 33.04 117.945 33.04C118.777 33.04 119.518 33.2213 120.169 33.584C120.82 33.9467 121.326 34.4587 121.689 35.12C122.052 35.7707 122.233 36.5227 122.233 37.376ZM120.329 36.8C120.318 36.128 120.078 35.5893 119.609 35.184C119.14 34.7787 118.558 34.576 117.865 34.576C117.236 34.576 116.697 34.7787 116.249 35.184C115.801 35.5787 115.534 36.1173 115.449 36.8H120.329Z" fill="white"/>
<rect x="162" width="150" height="58.4898" rx="4" fill="#333333"/>
<g clip-path="url(#clip1_2155_14940)">
<path d="M187.065 28.7299L176.719 18.3547L189.883 25.9123L187.065 28.7299ZM174.018 17.7451C173.408 18.0643 173 18.6451 173 19.4011V40.0891C173 40.8451 173.408 41.4259 174.018 41.7451L186.05 29.7427L174.018 17.7451ZM193.953 28.3219L191.192 26.7235L188.112 29.7475L191.192 32.7715L194.01 31.1731C194.853 30.5023 194.853 28.9927 193.953 28.3219ZM176.719 41.1403L189.883 33.5827L187.065 30.7651L176.719 41.1403Z" fill="white"/>
</g>
<path d="M205.234 13.333C206.07 13.333 206.792 13.4907 207.401 13.806C208.017 14.114 208.486 14.5577 208.809 15.137C209.139 15.7163 209.304 16.3983 209.304 17.183C209.304 17.9677 209.139 18.6497 208.809 19.229C208.486 19.801 208.017 20.241 207.401 20.549C206.792 20.8497 206.07 21 205.234 21H202.847V13.333H205.234ZM205.234 20.175C206.224 20.175 206.979 19.9147 207.5 19.394C208.021 18.866 208.281 18.129 208.281 17.183C208.281 16.2297 208.017 15.4853 207.489 14.95C206.968 14.4147 206.217 14.147 205.234 14.147H203.848V20.175H205.234ZM213.253 21.099C212.689 21.099 212.175 20.9707 211.713 20.714C211.259 20.4573 210.899 20.0943 210.635 19.625C210.379 19.1483 210.25 18.5983 210.25 17.975C210.25 17.359 210.382 16.8163 210.646 16.347C210.918 15.8703 211.284 15.5073 211.746 15.258C212.208 15.0013 212.725 14.873 213.297 14.873C213.869 14.873 214.386 15.0013 214.848 15.258C215.31 15.5073 215.673 15.8667 215.937 16.336C216.209 16.8053 216.344 17.3517 216.344 17.975C216.344 18.5983 216.205 19.1483 215.926 19.625C215.655 20.0943 215.285 20.4573 214.815 20.714C214.346 20.9707 213.825 21.099 213.253 21.099ZM213.253 20.219C213.613 20.219 213.95 20.1347 214.265 19.966C214.581 19.7973 214.834 19.5443 215.024 19.207C215.222 18.8697 215.321 18.459 215.321 17.975C215.321 17.491 215.226 17.0803 215.035 16.743C214.845 16.4057 214.595 16.1563 214.287 15.995C213.979 15.8263 213.646 15.742 213.286 15.742C212.92 15.742 212.582 15.8263 212.274 15.995C211.974 16.1563 211.732 16.4057 211.548 16.743C211.365 17.0803 211.273 17.491 211.273 17.975C211.273 18.4663 211.361 18.8807 211.537 19.218C211.721 19.5553 211.963 19.8083 212.263 19.977C212.564 20.1383 212.894 20.219 213.253 20.219ZM225.69 14.972L223.809 21H222.775L221.323 16.215L219.871 21H218.837L216.945 14.972H217.968L219.354 20.032L220.85 14.972H221.873L223.336 20.043L224.7 14.972H225.69ZM229.621 14.862C230.354 14.862 230.948 15.0857 231.403 15.533C231.858 15.973 232.085 16.611 232.085 17.447V21H231.095V17.59C231.095 16.9887 230.945 16.5303 230.644 16.215C230.343 15.8923 229.933 15.731 229.412 15.731C228.884 15.731 228.462 15.896 228.147 16.226C227.839 16.556 227.685 17.0363 227.685 17.667V21H226.684V14.972H227.685V15.83C227.883 15.522 228.151 15.2837 228.488 15.115C228.833 14.9463 229.21 14.862 229.621 14.862ZM234.721 12.86V21H233.72V12.86H234.721ZM239.056 21.099C238.491 21.099 237.978 20.9707 237.516 20.714C237.061 20.4573 236.702 20.0943 236.438 19.625C236.181 19.1483 236.053 18.5983 236.053 17.975C236.053 17.359 236.185 16.8163 236.449 16.347C236.72 15.8703 237.087 15.5073 237.549 15.258C238.011 15.0013 238.528 14.873 239.1 14.873C239.672 14.873 240.189 15.0013 240.651 15.258C241.113 15.5073 241.476 15.8667 241.74 16.336C242.011 16.8053 242.147 17.3517 242.147 17.975C242.147 18.5983 242.008 19.1483 241.729 19.625C241.458 20.0943 241.087 20.4573 240.618 20.714C240.149 20.9707 239.628 21.099 239.056 21.099ZM239.056 20.219C239.415 20.219 239.753 20.1347 240.068 19.966C240.383 19.7973 240.636 19.5443 240.827 19.207C241.025 18.8697 241.124 18.459 241.124 17.975C241.124 17.491 241.029 17.0803 240.838 16.743C240.647 16.4057 240.398 16.1563 240.09 15.995C239.782 15.8263 239.448 15.742 239.089 15.742C238.722 15.742 238.385 15.8263 238.077 15.995C237.776 16.1563 237.534 16.4057 237.351 16.743C237.168 17.0803 237.076 17.491 237.076 17.975C237.076 18.4663 237.164 18.8807 237.34 19.218C237.523 19.5553 237.765 19.8083 238.066 19.977C238.367 20.1383 238.697 20.219 239.056 20.219ZM243.089 17.964C243.089 17.348 243.214 16.809 243.463 16.347C243.713 15.8777 244.054 15.5147 244.486 15.258C244.926 15.0013 245.414 14.873 245.949 14.873C246.477 14.873 246.936 14.9867 247.324 15.214C247.713 15.4413 248.003 15.7273 248.193 16.072V14.972H249.205V21H248.193V19.878C247.995 20.23 247.698 20.5233 247.302 20.758C246.914 20.9853 246.459 21.099 245.938 21.099C245.403 21.099 244.919 20.967 244.486 20.703C244.054 20.439 243.713 20.0687 243.463 19.592C243.214 19.1153 243.089 18.5727 243.089 17.964ZM248.193 17.975C248.193 17.5203 248.102 17.1243 247.918 16.787C247.735 16.4497 247.486 16.193 247.17 16.017C246.862 15.8337 246.521 15.742 246.147 15.742C245.773 15.742 245.432 15.83 245.124 16.006C244.816 16.182 244.571 16.4387 244.387 16.776C244.204 17.1133 244.112 17.5093 244.112 17.964C244.112 18.426 244.204 18.8293 244.387 19.174C244.571 19.5113 244.816 19.7717 245.124 19.955C245.432 20.131 245.773 20.219 246.147 20.219C246.521 20.219 246.862 20.131 247.17 19.955C247.486 19.7717 247.735 19.5113 247.918 19.174C248.102 18.8293 248.193 18.4297 248.193 17.975ZM250.523 17.964C250.523 17.348 250.647 16.809 250.897 16.347C251.146 15.8777 251.487 15.5147 251.92 15.258C252.36 15.0013 252.851 14.873 253.394 14.873C253.863 14.873 254.299 14.983 254.703 15.203C255.106 15.4157 255.414 15.698 255.627 16.05V12.86H256.639V21H255.627V19.867C255.429 20.2263 255.135 20.5233 254.747 20.758C254.358 20.9853 253.903 21.099 253.383 21.099C252.847 21.099 252.36 20.967 251.92 20.703C251.487 20.439 251.146 20.0687 250.897 19.592C250.647 19.1153 250.523 18.5727 250.523 17.964ZM255.627 17.975C255.627 17.5203 255.535 17.1243 255.352 16.787C255.168 16.4497 254.919 16.193 254.604 16.017C254.296 15.8337 253.955 15.742 253.581 15.742C253.207 15.742 252.866 15.83 252.558 16.006C252.25 16.182 252.004 16.4387 251.821 16.776C251.637 17.1133 251.546 17.5093 251.546 17.964C251.546 18.426 251.637 18.8293 251.821 19.174C252.004 19.5113 252.25 19.7717 252.558 19.955C252.866 20.131 253.207 20.219 253.581 20.219C253.955 20.219 254.296 20.131 254.604 19.955C254.919 19.7717 255.168 19.5113 255.352 19.174C255.535 18.8293 255.627 18.4297 255.627 17.975ZM263.892 21.099C263.327 21.099 262.814 20.9707 262.352 20.714C261.897 20.4573 261.538 20.0943 261.274 19.625C261.017 19.1483 260.889 18.5983 260.889 17.975C260.889 17.359 261.021 16.8163 261.285 16.347C261.556 15.8703 261.923 15.5073 262.385 15.258C262.847 15.0013 263.364 14.873 263.936 14.873C264.508 14.873 265.025 15.0013 265.487 15.258C265.949 15.5073 266.312 15.8667 266.576 16.336C266.847 16.8053 266.983 17.3517 266.983 17.975C266.983 18.5983 266.844 19.1483 266.565 19.625C266.294 20.0943 265.923 20.4573 265.454 20.714C264.985 20.9707 264.464 21.099 263.892 21.099ZM263.892 20.219C264.251 20.219 264.589 20.1347 264.904 19.966C265.219 19.7973 265.472 19.5443 265.663 19.207C265.861 18.8697 265.96 18.459 265.96 17.975C265.96 17.491 265.865 17.0803 265.674 16.743C265.483 16.4057 265.234 16.1563 264.926 15.995C264.618 15.8263 264.284 15.742 263.925 15.742C263.558 15.742 263.221 15.8263 262.913 15.995C262.612 16.1563 262.37 16.4057 262.187 16.743C262.004 17.0803 261.912 17.491 261.912 17.975C261.912 18.4663 262 18.8807 262.176 19.218C262.359 19.5553 262.601 19.8083 262.902 19.977C263.203 20.1383 263.533 20.219 263.892 20.219ZM271.236 14.862C271.969 14.862 272.563 15.0857 273.018 15.533C273.473 15.973 273.7 16.611 273.7 17.447V21H272.71V17.59C272.71 16.9887 272.56 16.5303 272.259 16.215C271.958 15.8923 271.548 15.731 271.027 15.731C270.499 15.731 270.077 15.896 269.762 16.226C269.454 16.556 269.3 17.0363 269.3 17.667V21H268.299V14.972H269.3V15.83C269.498 15.522 269.766 15.2837 270.103 15.115C270.448 14.9463 270.825 14.862 271.236 14.862ZM279.489 15.797V19.35C279.489 19.6433 279.551 19.8523 279.676 19.977C279.801 20.0943 280.017 20.153 280.325 20.153H281.062V21H280.16C279.603 21 279.185 20.8717 278.906 20.615C278.627 20.3583 278.488 19.9367 278.488 19.35V15.797H277.707V14.972H278.488V13.454H279.489V14.972H281.062V15.797H279.489ZM285.267 14.862C285.721 14.862 286.132 14.961 286.499 15.159C286.865 15.3497 287.151 15.6393 287.357 16.028C287.569 16.4167 287.676 16.8897 287.676 17.447V21H286.686V17.59C286.686 16.9887 286.535 16.5303 286.235 16.215C285.934 15.8923 285.523 15.731 285.003 15.731C284.475 15.731 284.053 15.896 283.738 16.226C283.43 16.556 283.276 17.0363 283.276 17.667V21H282.275V12.86H283.276V15.83C283.474 15.522 283.745 15.2837 284.09 15.115C284.442 14.9463 284.834 14.862 285.267 14.862ZM294.811 17.755C294.811 17.9457 294.8 18.1473 294.778 18.36H289.96C289.997 18.954 290.198 19.4197 290.565 19.757C290.939 20.087 291.39 20.252 291.918 20.252C292.351 20.252 292.71 20.153 292.996 19.955C293.289 19.7497 293.495 19.4783 293.612 19.141H294.69C294.529 19.7203 294.206 20.1933 293.722 20.56C293.238 20.9193 292.637 21.099 291.918 21.099C291.346 21.099 290.833 20.9707 290.378 20.714C289.931 20.4573 289.579 20.0943 289.322 19.625C289.065 19.1483 288.937 18.5983 288.937 17.975C288.937 17.3517 289.062 16.8053 289.311 16.336C289.56 15.8667 289.909 15.5073 290.356 15.258C290.811 15.0013 291.331 14.873 291.918 14.873C292.49 14.873 292.996 14.9977 293.436 15.247C293.876 15.4963 294.213 15.841 294.448 16.281C294.69 16.7137 294.811 17.205 294.811 17.755ZM293.777 17.546C293.777 17.1647 293.693 16.8383 293.524 16.567C293.355 16.2883 293.124 16.0793 292.831 15.94C292.545 15.7933 292.226 15.72 291.874 15.72C291.368 15.72 290.935 15.8813 290.576 16.204C290.224 16.5267 290.022 16.974 289.971 17.546H293.777Z" fill="#B3B3B3"/>
<path d="M211.248 34.08C210.96 33.5253 210.56 33.1093 210.048 32.832C209.536 32.544 208.944 32.4 208.272 32.4C207.536 32.4 206.88 32.5653 206.304 32.896C205.728 33.2267 205.275 33.696 204.944 34.304C204.624 34.912 204.464 35.616 204.464 36.416C204.464 37.216 204.624 37.9253 204.944 38.544C205.275 39.152 205.728 39.6213 206.304 39.952C206.88 40.2827 207.536 40.448 208.272 40.448C209.264 40.448 210.069 40.1707 210.688 39.616C211.307 39.0613 211.685 38.3093 211.824 37.36H207.648V35.904H213.776V37.328C213.659 38.192 213.349 38.9867 212.848 39.712C212.357 40.4373 211.712 41.0187 210.912 41.456C210.123 41.8827 209.243 42.096 208.272 42.096C207.227 42.096 206.272 41.856 205.408 41.376C204.544 40.8853 203.856 40.208 203.344 39.344C202.843 38.48 202.592 37.504 202.592 36.416C202.592 35.328 202.843 34.352 203.344 33.488C203.856 32.624 204.544 31.952 205.408 31.472C206.283 30.9813 207.237 30.736 208.272 30.736C209.456 30.736 210.507 31.0293 211.424 31.616C212.352 32.192 213.024 33.0133 213.44 34.08H211.248ZM219.399 42.144C218.567 42.144 217.815 41.9573 217.143 41.584C216.471 41.2 215.943 40.6667 215.559 39.984C215.175 39.2907 214.983 38.4907 214.983 37.584C214.983 36.688 215.18 35.8933 215.575 35.2C215.97 34.5067 216.508 33.9733 217.191 33.6C217.874 33.2267 218.636 33.04 219.479 33.04C220.322 33.04 221.084 33.2267 221.767 33.6C222.45 33.9733 222.988 34.5067 223.383 35.2C223.778 35.8933 223.975 36.688 223.975 37.584C223.975 38.48 223.772 39.2747 223.367 39.968C222.962 40.6613 222.407 41.2 221.703 41.584C221.01 41.9573 220.242 42.144 219.399 42.144ZM219.399 40.56C219.868 40.56 220.306 40.448 220.711 40.224C221.127 40 221.463 39.664 221.719 39.216C221.975 38.768 222.103 38.224 222.103 37.584C222.103 36.944 221.98 36.4053 221.735 35.968C221.49 35.52 221.164 35.184 220.759 34.96C220.354 34.736 219.916 34.624 219.447 34.624C218.978 34.624 218.54 34.736 218.135 34.96C217.74 35.184 217.426 35.52 217.191 35.968C216.956 36.4053 216.839 36.944 216.839 37.584C216.839 38.5333 217.079 39.2693 217.559 39.792C218.05 40.304 218.663 40.56 219.399 40.56ZM229.602 42.144C228.77 42.144 228.018 41.9573 227.346 41.584C226.674 41.2 226.146 40.6667 225.762 39.984C225.378 39.2907 225.186 38.4907 225.186 37.584C225.186 36.688 225.383 35.8933 225.778 35.2C226.173 34.5067 226.711 33.9733 227.394 33.6C228.077 33.2267 228.839 33.04 229.682 33.04C230.525 33.04 231.287 33.2267 231.97 33.6C232.653 33.9733 233.191 34.5067 233.586 35.2C233.981 35.8933 234.178 36.688 234.178 37.584C234.178 38.48 233.975 39.2747 233.57 39.968C233.165 40.6613 232.61 41.2 231.906 41.584C231.213 41.9573 230.445 42.144 229.602 42.144ZM229.602 40.56C230.071 40.56 230.509 40.448 230.914 40.224C231.33 40 231.666 39.664 231.922 39.216C232.178 38.768 232.306 38.224 232.306 37.584C232.306 36.944 232.183 36.4053 231.938 35.968C231.693 35.52 231.367 35.184 230.962 34.96C230.557 34.736 230.119 34.624 229.65 34.624C229.181 34.624 228.743 34.736 228.338 34.96C227.943 35.184 227.629 35.52 227.394 35.968C227.159 36.4053 227.042 36.944 227.042 37.584C227.042 38.5333 227.282 39.2693 227.762 39.792C228.253 40.304 228.866 40.56 229.602 40.56ZM239.533 33.04C240.216 33.04 240.819 33.1787 241.341 33.456C241.875 33.7227 242.291 34.0587 242.589 34.464V33.184H244.429V42.144C244.429 42.9547 244.259 43.6747 243.917 44.304C243.576 44.944 243.08 45.4453 242.429 45.808C241.789 46.1707 241.021 46.352 240.125 46.352C238.931 46.352 237.939 46.0693 237.149 45.504C236.36 44.9493 235.912 44.192 235.805 43.232H237.613C237.752 43.6907 238.045 44.0587 238.493 44.336C238.952 44.624 239.496 44.768 240.125 44.768C240.861 44.768 241.453 44.544 241.901 44.096C242.36 43.648 242.589 42.9973 242.589 42.144V40.672C242.28 41.088 241.859 41.44 241.325 41.728C240.803 42.0053 240.205 42.144 239.533 42.144C238.765 42.144 238.061 41.952 237.421 41.568C236.792 41.1733 236.291 40.6293 235.917 39.936C235.555 39.232 235.373 38.4373 235.373 37.552C235.373 36.6667 235.555 35.8827 235.917 35.2C236.291 34.5173 236.792 33.9893 237.421 33.616C238.061 33.232 238.765 33.04 239.533 33.04ZM242.589 37.584C242.589 36.976 242.461 36.448 242.205 36C241.96 35.552 241.635 35.2107 241.229 34.976C240.824 34.7413 240.387 34.624 239.917 34.624C239.448 34.624 239.011 34.7413 238.605 34.976C238.2 35.2 237.869 35.536 237.613 35.984C237.368 36.4213 237.245 36.944 237.245 37.552C237.245 38.16 237.368 38.6933 237.613 39.152C237.869 39.6107 238.2 39.9627 238.605 40.208C239.021 40.4427 239.459 40.56 239.917 40.56C240.387 40.56 240.824 40.4427 241.229 40.208C241.635 39.9733 241.96 39.632 242.205 39.184C242.461 38.7253 242.589 38.192 242.589 37.584ZM248.649 30.16V42H246.825V30.16H248.649ZM259.124 37.376C259.124 37.7067 259.102 38.0053 259.06 38.272H252.324C252.377 38.976 252.638 39.5413 253.108 39.968C253.577 40.3947 254.153 40.608 254.836 40.608C255.817 40.608 256.51 40.1973 256.916 39.376H258.884C258.617 40.1867 258.132 40.8533 257.428 41.376C256.734 41.888 255.87 42.144 254.836 42.144C253.993 42.144 253.236 41.9573 252.564 41.584C251.902 41.2 251.38 40.6667 250.996 39.984C250.622 39.2907 250.436 38.4907 250.436 37.584C250.436 36.6773 250.617 35.8827 250.98 35.2C251.353 34.5067 251.87 33.9733 252.532 33.6C253.204 33.2267 253.972 33.04 254.836 33.04C255.668 33.04 256.409 33.2213 257.06 33.584C257.71 33.9467 258.217 34.4587 258.58 35.12C258.942 35.7707 259.124 36.5227 259.124 37.376ZM257.22 36.8C257.209 36.128 256.969 35.5893 256.5 35.184C256.03 34.7787 255.449 34.576 254.756 34.576C254.126 34.576 253.588 34.7787 253.14 35.184C252.692 35.5787 252.425 36.1173 252.34 36.8H257.22ZM266.899 34.48C267.208 34.0747 267.63 33.7333 268.163 33.456C268.696 33.1787 269.299 33.04 269.971 33.04C270.739 33.04 271.438 33.232 272.067 33.616C272.707 33.9893 273.208 34.5173 273.571 35.2C273.934 35.8827 274.115 36.6667 274.115 37.552C274.115 38.4373 273.934 39.232 273.571 39.936C273.208 40.6293 272.707 41.1733 272.067 41.568C271.438 41.952 270.739 42.144 269.971 42.144C269.299 42.144 268.702 42.0107 268.179 41.744C267.656 41.4667 267.23 41.1253 266.899 40.72V46.192H265.075V33.184H266.899V34.48ZM272.259 37.552C272.259 36.944 272.131 36.4213 271.875 35.984C271.63 35.536 271.299 35.2 270.883 34.976C270.478 34.7413 270.04 34.624 269.571 34.624C269.112 34.624 268.675 34.7413 268.259 34.976C267.854 35.2107 267.523 35.552 267.267 36C267.022 36.448 266.899 36.976 266.899 37.584C266.899 38.192 267.022 38.7253 267.267 39.184C267.523 39.632 267.854 39.9733 268.259 40.208C268.675 40.4427 269.112 40.56 269.571 40.56C270.04 40.56 270.478 40.4427 270.883 40.208C271.299 39.9627 271.63 39.6107 271.875 39.152C272.131 38.6933 272.259 38.16 272.259 37.552ZM277.743 30.16V42H275.919V30.16H277.743ZM279.53 37.552C279.53 36.6667 279.711 35.8827 280.074 35.2C280.447 34.5173 280.948 33.9893 281.578 33.616C282.218 33.232 282.922 33.04 283.69 33.04C284.383 33.04 284.986 33.1787 285.498 33.456C286.02 33.7227 286.436 34.0587 286.746 34.464V33.184H288.586V42H286.746V40.688C286.436 41.104 286.015 41.4507 285.482 41.728C284.948 42.0053 284.34 42.144 283.658 42.144C282.9 42.144 282.207 41.952 281.578 41.568C280.948 41.1733 280.447 40.6293 280.074 39.936C279.711 39.232 279.53 38.4373 279.53 37.552ZM286.746 37.584C286.746 36.976 286.618 36.448 286.362 36C286.116 35.552 285.791 35.2107 285.386 34.976C284.98 34.7413 284.543 34.624 284.074 34.624C283.604 34.624 283.167 34.7413 282.762 34.976C282.356 35.2 282.026 35.536 281.77 35.984C281.524 36.4213 281.402 36.944 281.402 37.552C281.402 38.16 281.524 38.6933 281.77 39.152C282.026 39.6107 282.356 39.9627 282.762 40.208C283.178 40.4427 283.615 40.56 284.074 40.56C284.543 40.56 284.98 40.4427 285.386 40.208C285.791 39.9733 286.116 39.632 286.362 39.184C286.618 38.7253 286.746 38.192 286.746 37.584ZM298.917 33.184L293.509 46.144H291.621L293.413 41.856L289.941 33.184H291.973L294.453 39.904L297.029 33.184H298.917Z" fill="white"/>
<defs>
<clipPath id="clip0_2155_14940">
<rect width="28" height="28" fill="white" transform="translate(10 15.2451)"/>
</clipPath>
<clipPath id="clip1_2155_14940">
<rect width="24" height="24" fill="white" transform="translate(172 17.2451)"/>
</clipPath>
</defs>
</svg>
