<?xml version="1.0" encoding="UTF-8"?>
<svg xmlns="http://www.w3.org/2000/svg" xmlns:xlink="http://www.w3.org/1999/xlink" width="60px" height="12px" viewBox="0 0 15 3" version="1.1">
<g id="surface1">
<path style=" stroke:none;fill-rule:nonzero;fill:rgb(100%,54.117647%,0%);fill-opacity:1;" d="M 1.550781 2.234375 L 2.144531 2.609375 C 2.21875 2.65625 2.3125 2.585938 2.289062 2.5 L 2.117188 1.828125 C 2.113281 1.808594 2.113281 1.789062 2.121094 1.769531 C 2.125 1.75 2.136719 1.734375 2.152344 1.722656 L 2.683594 1.28125 C 2.75 1.222656 2.714844 1.109375 2.625 1.101562 L 1.933594 1.058594 C 1.914062 1.054688 1.898438 1.050781 1.882812 1.039062 C 1.867188 1.027344 1.855469 1.011719 1.847656 0.996094 L 1.589844 0.34375 C 1.585938 0.324219 1.570312 0.308594 1.554688 0.296875 C 1.539062 0.289062 1.519531 0.28125 1.5 0.28125 C 1.480469 0.28125 1.460938 0.289062 1.445312 0.296875 C 1.429688 0.308594 1.414062 0.324219 1.410156 0.34375 L 1.152344 0.996094 C 1.144531 1.011719 1.132812 1.027344 1.117188 1.039062 C 1.101562 1.050781 1.085938 1.054688 1.066406 1.058594 L 0.375 1.101562 C 0.285156 1.109375 0.25 1.222656 0.316406 1.28125 L 0.847656 1.722656 C 0.863281 1.734375 0.875 1.75 0.878906 1.769531 C 0.886719 1.789062 0.886719 1.808594 0.882812 1.828125 L 0.722656 2.449219 C 0.695312 2.554688 0.808594 2.640625 0.898438 2.582031 L 1.449219 2.234375 C 1.464844 2.226562 1.480469 2.21875 1.5 2.21875 C 1.519531 2.21875 1.535156 2.226562 1.550781 2.234375 Z M 1.550781 2.234375 "/>
<path style=" stroke:none;fill-rule:nonzero;fill:rgb(100%,54.117647%,0%);fill-opacity:1;" d="M 4.550781 2.234375 L 5.144531 2.609375 C 5.21875 2.65625 5.3125 2.585938 5.289062 2.5 L 5.117188 1.828125 C 5.113281 1.808594 5.113281 1.789062 5.121094 1.769531 C 5.125 1.75 5.136719 1.734375 5.152344 1.722656 L 5.683594 1.28125 C 5.75 1.222656 5.714844 1.109375 5.625 1.101562 L 4.933594 1.058594 C 4.914062 1.054688 4.898438 1.050781 4.882812 1.039062 C 4.867188 1.027344 4.855469 1.011719 4.847656 0.996094 L 4.589844 0.34375 C 4.585938 0.324219 4.570312 0.308594 4.554688 0.296875 C 4.539062 0.289062 4.519531 0.28125 4.5 0.28125 C 4.480469 0.28125 4.460938 0.289062 4.445312 0.296875 C 4.429688 0.308594 4.414062 0.324219 4.410156 0.34375 L 4.152344 0.996094 C 4.144531 1.011719 4.132812 1.027344 4.117188 1.039062 C 4.101562 1.050781 4.085938 1.054688 4.066406 1.058594 L 3.375 1.101562 C 3.285156 1.109375 3.25 1.222656 3.316406 1.28125 L 3.847656 1.722656 C 3.863281 1.734375 3.875 1.75 3.878906 1.769531 C 3.886719 1.789062 3.886719 1.808594 3.882812 1.828125 L 3.722656 2.449219 C 3.695312 2.554688 3.808594 2.640625 3.898438 2.582031 L 4.449219 2.234375 C 4.464844 2.226562 4.480469 2.21875 4.5 2.21875 C 4.519531 2.21875 4.535156 2.226562 4.550781 2.234375 Z M 4.550781 2.234375 "/>
<path style=" stroke:none;fill-rule:nonzero;fill:rgb(100%,54.117647%,0%);fill-opacity:1;" d="M 7.550781 2.234375 L 8.144531 2.609375 C 8.21875 2.65625 8.3125 2.585938 8.289062 2.5 L 8.117188 1.828125 C 8.113281 1.808594 8.113281 1.789062 8.121094 1.769531 C 8.125 1.75 8.136719 1.734375 8.152344 1.722656 L 8.683594 1.28125 C 8.75 1.222656 8.714844 1.109375 8.625 1.101562 L 7.933594 1.058594 C 7.914062 1.054688 7.898438 1.050781 7.882812 1.039062 C 7.867188 1.027344 7.855469 1.011719 7.847656 0.996094 L 7.589844 0.34375 C 7.585938 0.324219 7.570312 0.308594 7.554688 0.296875 C 7.539062 0.289062 7.519531 0.28125 7.5 0.28125 C 7.480469 0.28125 7.460938 0.289062 7.445312 0.296875 C 7.429688 0.308594 7.414062 0.324219 7.410156 0.34375 L 7.152344 0.996094 C 7.144531 1.011719 7.132812 1.027344 7.117188 1.039062 C 7.101562 1.050781 7.085938 1.054688 7.066406 1.058594 L 6.375 1.101562 C 6.285156 1.109375 6.25 1.222656 6.316406 1.28125 L 6.847656 1.722656 C 6.863281 1.734375 6.875 1.75 6.878906 1.769531 C 6.886719 1.789062 6.886719 1.808594 6.882812 1.828125 L 6.722656 2.449219 C 6.695312 2.554688 6.808594 2.640625 6.898438 2.582031 L 7.449219 2.234375 C 7.464844 2.226562 7.480469 2.21875 7.5 2.21875 C 7.519531 2.21875 7.535156 2.226562 7.550781 2.234375 Z M 7.550781 2.234375 "/>
<path style=" stroke:none;fill-rule:nonzero;fill:rgb(100%,54.117647%,0%);fill-opacity:1;" d="M 10.550781 2.234375 L 11.144531 2.609375 C 11.21875 2.65625 11.3125 2.585938 11.289062 2.5 L 11.117188 1.828125 C 11.113281 1.808594 11.113281 1.789062 11.121094 1.769531 C 11.125 1.75 11.136719 1.734375 11.152344 1.722656 L 11.683594 1.28125 C 11.75 1.222656 11.714844 1.109375 11.625 1.101562 L 10.933594 1.058594 C 10.914062 1.054688 10.898438 1.050781 10.882812 1.039062 C 10.867188 1.027344 10.855469 1.011719 10.847656 0.996094 L 10.589844 0.34375 C 10.585938 0.324219 10.570312 0.308594 10.554688 0.296875 C 10.539062 0.289062 10.519531 0.28125 10.5 0.28125 C 10.480469 0.28125 10.460938 0.289062 10.445312 0.296875 C 10.429688 0.308594 10.414062 0.324219 10.410156 0.34375 L 10.152344 0.996094 C 10.144531 1.011719 10.132812 1.027344 10.117188 1.039062 C 10.101562 1.050781 10.085938 1.054688 10.066406 1.058594 L 9.375 1.101562 C 9.285156 1.109375 9.25 1.222656 9.316406 1.28125 L 9.847656 1.722656 C 9.863281 1.734375 9.875 1.75 9.878906 1.769531 C 9.886719 1.789062 9.886719 1.808594 9.882812 1.828125 L 9.722656 2.449219 C 9.695312 2.554688 9.808594 2.640625 9.898438 2.582031 L 10.449219 2.234375 C 10.464844 2.226562 10.480469 2.21875 10.5 2.21875 C 10.519531 2.21875 10.535156 2.226562 10.550781 2.234375 Z M 10.550781 2.234375 "/>
<path style=" stroke:none;fill-rule:nonzero;fill:rgb(80%,80%,80%);fill-opacity:1;" d="M 13.550781 2.234375 L 14.144531 2.609375 C 14.21875 2.65625 14.3125 2.585938 14.289062 2.5 L 14.117188 1.828125 C 14.113281 1.808594 14.113281 1.789062 14.121094 1.769531 C 14.125 1.75 14.136719 1.734375 14.152344 1.722656 L 14.683594 1.28125 C 14.75 1.222656 14.714844 1.109375 14.625 1.101562 L 13.933594 1.058594 C 13.914062 1.054688 13.898438 1.050781 13.882812 1.039062 C 13.867188 1.027344 13.855469 1.011719 13.847656 0.996094 L 13.589844 0.34375 C 13.585938 0.324219 13.570312 0.308594 13.554688 0.296875 C 13.539062 0.289062 13.519531 0.28125 13.5 0.28125 C 13.480469 0.28125 13.460938 0.289062 13.445312 0.296875 C 13.429688 0.308594 13.414062 0.324219 13.410156 0.34375 L 13.152344 0.996094 C 13.144531 1.011719 13.132812 1.027344 13.117188 1.039062 C 13.101562 1.050781 13.085938 1.054688 13.066406 1.058594 L 12.375 1.101562 C 12.285156 1.109375 12.25 1.222656 12.316406 1.28125 L 12.847656 1.722656 C 12.863281 1.734375 12.875 1.75 12.878906 1.769531 C 12.886719 1.789062 12.886719 1.808594 12.882812 1.828125 L 12.722656 2.449219 C 12.695312 2.554688 12.808594 2.640625 12.898438 2.582031 L 13.449219 2.234375 C 13.464844 2.226562 13.480469 2.21875 13.5 2.21875 C 13.519531 2.21875 13.535156 2.226562 13.550781 2.234375 Z M 13.550781 2.234375 "/>
</g>
</svg>
