<?xml version="1.0" encoding="UTF-8"?>
<svg xmlns="http://www.w3.org/2000/svg" xmlns:xlink="http://www.w3.org/1999/xlink" width="30px" height="6px" viewBox="0 0 30 6" version="1.1">
<g id="surface1">
<path style=" stroke:none;fill-rule:nonzero;fill:rgb(100%,54.117647%,0%);fill-opacity:1;" d="M 3.101562 4.46875 L 4.285156 5.21875 C 4.4375 5.316406 4.625 5.171875 4.578125 4.996094 L 4.238281 3.652344 C 4.226562 3.617188 4.230469 3.574219 4.242188 3.539062 C 4.253906 3.503906 4.273438 3.46875 4.304688 3.445312 L 5.363281 2.5625 C 5.503906 2.445312 5.433594 2.214844 5.253906 2.203125 L 3.867188 2.113281 C 3.832031 2.109375 3.796875 2.097656 3.765625 2.074219 C 3.734375 2.054688 3.710938 2.023438 3.699219 1.988281 L 3.183594 0.6875 C 3.167969 0.652344 3.144531 0.621094 3.109375 0.597656 C 3.078125 0.574219 3.039062 0.5625 3 0.5625 C 2.960938 0.5625 2.921875 0.574219 2.890625 0.597656 C 2.855469 0.621094 2.832031 0.652344 2.816406 0.6875 L 2.300781 1.988281 C 2.289062 2.023438 2.265625 2.054688 2.234375 2.074219 C 2.203125 2.097656 2.167969 2.109375 2.132812 2.113281 L 0.746094 2.203125 C 0.570312 2.214844 0.496094 2.445312 0.636719 2.5625 L 1.695312 3.445312 C 1.726562 3.46875 1.746094 3.503906 1.757812 3.539062 C 1.769531 3.574219 1.773438 3.617188 1.761719 3.652344 L 1.445312 4.898438 C 1.390625 5.109375 1.617188 5.28125 1.796875 5.167969 L 2.898438 4.46875 C 2.929688 4.449219 2.964844 4.441406 3 4.441406 C 3.035156 4.441406 3.074219 4.449219 3.105469 4.46875 Z M 3.101562 4.46875 "/>
<path style=" stroke:none;fill-rule:nonzero;fill:rgb(100%,54.117647%,0%);fill-opacity:1;" d="M 9.101562 4.46875 L 10.285156 5.21875 C 10.4375 5.316406 10.625 5.171875 10.578125 4.996094 L 10.238281 3.652344 C 10.226562 3.617188 10.230469 3.574219 10.242188 3.539062 C 10.253906 3.503906 10.273438 3.46875 10.304688 3.445312 L 11.363281 2.5625 C 11.503906 2.445312 11.433594 2.214844 11.253906 2.203125 L 9.867188 2.113281 C 9.832031 2.109375 9.796875 2.097656 9.765625 2.074219 C 9.734375 2.054688 9.710938 2.023438 9.699219 1.988281 L 9.183594 0.6875 C 9.167969 0.652344 9.144531 0.621094 9.109375 0.597656 C 9.078125 0.574219 9.039062 0.5625 9 0.5625 C 8.960938 0.5625 8.921875 0.574219 8.890625 0.597656 C 8.855469 0.621094 8.832031 0.652344 8.816406 0.6875 L 8.300781 1.988281 C 8.289062 2.023438 8.265625 2.054688 8.234375 2.074219 C 8.203125 2.097656 8.167969 2.109375 8.132812 2.113281 L 6.746094 2.203125 C 6.566406 2.214844 6.496094 2.445312 6.636719 2.5625 L 7.695312 3.445312 C 7.726562 3.46875 7.746094 3.503906 7.757812 3.539062 C 7.769531 3.574219 7.773438 3.617188 7.761719 3.652344 L 7.445312 4.898438 C 7.390625 5.109375 7.617188 5.28125 7.796875 5.167969 L 8.898438 4.46875 C 8.929688 4.449219 8.964844 4.441406 9 4.441406 C 9.035156 4.441406 9.074219 4.449219 9.105469 4.46875 Z M 9.101562 4.46875 "/>
<path style=" stroke:none;fill-rule:nonzero;fill:rgb(100%,54.117647%,0%);fill-opacity:1;" d="M 15.101562 4.46875 L 16.285156 5.21875 C 16.4375 5.316406 16.625 5.171875 16.578125 4.996094 L 16.238281 3.652344 C 16.226562 3.617188 16.230469 3.574219 16.242188 3.539062 C 16.253906 3.503906 16.273438 3.46875 16.304688 3.445312 L 17.363281 2.5625 C 17.503906 2.445312 17.433594 2.214844 17.253906 2.203125 L 15.867188 2.113281 C 15.832031 2.109375 15.796875 2.097656 15.765625 2.074219 C 15.734375 2.054688 15.710938 2.023438 15.699219 1.988281 L 15.183594 0.6875 C 15.167969 0.652344 15.144531 0.621094 15.109375 0.597656 C 15.078125 0.574219 15.039062 0.5625 15 0.5625 C 14.960938 0.5625 14.921875 0.574219 14.890625 0.597656 C 14.855469 0.621094 14.832031 0.652344 14.816406 0.6875 L 14.300781 1.988281 C 14.289062 2.023438 14.265625 2.054688 14.234375 2.074219 C 14.203125 2.097656 14.167969 2.109375 14.132812 2.113281 L 12.746094 2.203125 C 12.566406 2.214844 12.496094 2.445312 12.636719 2.5625 L 13.695312 3.445312 C 13.726562 3.46875 13.746094 3.503906 13.757812 3.539062 C 13.769531 3.574219 13.773438 3.617188 13.761719 3.652344 L 13.445312 4.898438 C 13.390625 5.109375 13.617188 5.28125 13.796875 5.167969 L 14.898438 4.46875 C 14.929688 4.449219 14.964844 4.441406 15 4.441406 C 15.035156 4.441406 15.074219 4.449219 15.105469 4.46875 Z M 15.101562 4.46875 "/>
<path style=" stroke:none;fill-rule:nonzero;fill:rgb(100%,54.117647%,0%);fill-opacity:1;" d="M 21.101562 4.46875 L 22.285156 5.21875 C 22.4375 5.316406 22.625 5.171875 22.578125 4.996094 L 22.238281 3.652344 C 22.226562 3.617188 22.230469 3.574219 22.242188 3.539062 C 22.253906 3.503906 22.273438 3.46875 22.304688 3.445312 L 23.363281 2.5625 C 23.503906 2.445312 23.433594 2.214844 23.253906 2.203125 L 21.867188 2.113281 C 21.832031 2.109375 21.796875 2.097656 21.765625 2.074219 C 21.734375 2.054688 21.710938 2.023438 21.699219 1.988281 L 21.183594 0.6875 C 21.167969 0.652344 21.144531 0.621094 21.109375 0.597656 C 21.078125 0.574219 21.039062 0.5625 21 0.5625 C 20.960938 0.5625 20.921875 0.574219 20.890625 0.597656 C 20.855469 0.621094 20.832031 0.652344 20.816406 0.6875 L 20.300781 1.988281 C 20.289062 2.023438 20.265625 2.054688 20.234375 2.074219 C 20.203125 2.097656 20.167969 2.109375 20.132812 2.113281 L 18.746094 2.203125 C 18.566406 2.214844 18.496094 2.445312 18.636719 2.5625 L 19.695312 3.445312 C 19.726562 3.46875 19.746094 3.503906 19.757812 3.539062 C 19.769531 3.574219 19.773438 3.617188 19.761719 3.652344 L 19.445312 4.898438 C 19.390625 5.109375 19.617188 5.28125 19.796875 5.167969 L 20.898438 4.46875 C 20.929688 4.449219 20.964844 4.441406 21 4.441406 C 21.035156 4.441406 21.074219 4.449219 21.105469 4.46875 Z M 21.101562 4.46875 "/>
<path style=" stroke:none;fill-rule:nonzero;fill:rgb(80%,80%,80%);fill-opacity:1;" d="M 27.101562 4.46875 L 28.285156 5.21875 C 28.4375 5.316406 28.625 5.171875 28.578125 4.996094 L 28.238281 3.652344 C 28.226562 3.617188 28.230469 3.574219 28.242188 3.539062 C 28.253906 3.503906 28.273438 3.46875 28.304688 3.445312 L 29.363281 2.5625 C 29.503906 2.445312 29.433594 2.214844 29.253906 2.203125 L 27.867188 2.113281 C 27.832031 2.109375 27.796875 2.097656 27.765625 2.074219 C 27.734375 2.054688 27.710938 2.023438 27.699219 1.988281 L 27.183594 0.6875 C 27.167969 0.652344 27.144531 0.621094 27.109375 0.597656 C 27.078125 0.574219 27.039062 0.5625 27 0.5625 C 26.960938 0.5625 26.921875 0.574219 26.890625 0.597656 C 26.855469 0.621094 26.832031 0.652344 26.816406 0.6875 L 26.300781 1.988281 C 26.289062 2.023438 26.265625 2.054688 26.234375 2.074219 C 26.203125 2.097656 26.167969 2.109375 26.132812 2.113281 L 24.746094 2.203125 C 24.566406 2.214844 24.496094 2.445312 24.636719 2.5625 L 25.695312 3.445312 C 25.726562 3.46875 25.746094 3.503906 25.757812 3.539062 C 25.769531 3.574219 25.773438 3.617188 25.761719 3.652344 L 25.445312 4.898438 C 25.390625 5.109375 25.617188 5.28125 25.796875 5.167969 L 26.898438 4.46875 C 26.929688 4.449219 26.964844 4.441406 27 4.441406 C 27.035156 4.441406 27.074219 4.449219 27.105469 4.46875 Z M 27.101562 4.46875 "/>
</g>
</svg>
